<svg width="32" height="32" viewBox="0 0 32 32" fill="none" xmlns="http://www.w3.org/2000/svg">
<rect width="32" height="32" fill="#1E1E1E"/>
<path d="M17.4132 7C15.3215 7.65644 13.9465 9.6302 15.3215 11.0538C18.2582 14.0942 26.4579 12.6616 26.7593 10.6965C27.0608 8.73134 21.8757 8.37404 18.2582 11.0538C14.6407 13.7335 14.891 16.6621 17.4132 18.0497C19.6862 19.3002 28.2118 18.5856 28.0913 16.1441C27.9707 13.7025 23.0694 14.2955 20.0034 15.4964C17.8042 16.3577 15.2316 18.1294 11.9155 18.9035C8.59951 19.6776 4 18.919 4 16.9638C4 15.0086 8.56375 14.9937 11.5934 15.9911C14.6231 16.9886 16.961 18.2196 15.536 22.3952C15.0602 23.6385 13.826 24.7879 12.5197 25.0694" stroke="#DACAB5" stroke-width="0.679105" stroke-linecap="square"/>
</svg>
